<?xml version="1.0" encoding="iso-8859-1"?>
<!-- Generator: Adobe Illustrator 18.0.0, SVG Export Plug-In . SVG Version: 6.00 Build 0)  -->
<!DOCTYPE svg PUBLIC "-//W3C//DTD SVG 1.1//EN" "http://www.w3.org/Graphics/SVG/1.1/DTD/svg11.dtd">
<svg version="1.1" id="Capa_1" xmlns="http://www.w3.org/2000/svg" xmlns:xlink="http://www.w3.org/1999/xlink" x="0px" y="0px"
	 viewBox="0 0 466.971 466.971" style="enable-background:new 0 0 466.971 466.971;" xml:space="preserve">
<g>
	<path d="M217.999,310.266c2.275-0.958,7.698-2.075,15.491-2.075c7.787,0,13.207,1.117,15.482,2.075
		c0.697,0.292,1.419,0.431,2.13,0.431c2.147,0,4.188-1.266,5.072-3.369c1.178-2.8-0.138-6.024-2.938-7.202
		c-4.435-1.865-11.633-2.935-19.747-2.935c-8.12,0-15.32,1.069-19.755,2.935c-2.8,1.178-4.115,4.402-2.938,7.202
		C211.974,310.128,215.199,311.441,217.999,310.266z"/>
	<path d="M238.986,314.458h-11c-3.038,0-5.5,2.463-5.5,5.5s2.462,5.5,5.5,5.5h11c3.038,0,5.5-2.463,5.5-5.5
		S242.023,314.458,238.986,314.458z"/>
	<path d="M398.585,68.387C354.485,24.287,295.852,0,233.485,0s-121,24.287-165.099,68.387S0,171.119,0,233.486
		s24.287,121,68.386,165.1c44.1,44.099,102.733,68.386,165.099,68.386s121-24.287,165.1-68.386
		c44.1-44.1,68.386-102.733,68.386-165.1S442.685,112.487,398.585,68.387z M113.308,234.299c0.416,11.913,2.022,23.46,4.681,34.471
		c-3.148-0.376-6.156-1.565-8.744-3.537c-3.822-2.912-6.281-7.139-6.924-11.901c-0.644-4.762,0.606-9.489,3.519-13.312
		C107.807,237.438,110.382,235.498,113.308,234.299z M361.86,240.02c2.913,3.822,4.163,8.55,3.519,13.312
		c-0.643,4.763-3.102,8.989-6.924,11.901c-2.794,2.129-6.074,3.358-9.494,3.621c2.693-11.124,4.31-22.796,4.711-34.841
		C356.898,235.173,359.732,237.228,361.86,240.02z M326.374,298.824c-1.704-0.794-2.697-2.127-3.256-3.321
		c-1.639-3.5-1.323-9.396,3.079-14.677c10.004-12.005,12.482-30.668,12.568-45.761l3.933-2.042
		C341.989,257.098,336.105,279.575,326.374,298.824z M319.306,232.772c-3.856-16.14-18.392-28.18-35.696-28.18
		c-18.943,0-34.579,14.425-36.505,32.866h-27.238c-1.927-18.442-17.562-32.866-36.505-32.866c-17.304,0-31.84,12.04-35.696,28.18
		l-8.322-4.32c0.393-9.214,1.514-15.938,1.545-16.115c0.067-0.397,7.079-39.82,40.4-47.568c8.631-2.011,16.64,0.318,24.48,7.111
		c16.061,13.919,39.375,13.919,55.435,0c7.841-6.793,15.852-9.12,24.481-7.111c33.175,7.714,40.333,47.18,40.404,47.592
		c0.631,3.646,1.303,9.408,1.557,16.083L319.306,232.772z M257.903,241.299c0-14.175,11.532-25.707,25.707-25.707
		c1.81,0,3.576,0.19,5.282,0.548l-21.938,44.717C261.421,256.138,257.903,249.124,257.903,241.299z M298.924,220.666
		c6.302,4.69,10.392,12.192,10.392,20.634c0,14.175-11.532,25.707-25.707,25.707c-2.408,0-4.736-0.34-6.948-0.962L298.924,220.666z
		 M157.654,241.299c0-14.175,11.532-25.707,25.707-25.707c1.713,0,3.386,0.172,5.006,0.493L166.49,260.67
		C161.082,255.954,157.654,249.021,157.654,241.299z M198.451,220.506c6.428,4.678,10.617,12.254,10.617,20.793
		c0,14.175-11.532,25.707-25.707,25.707c-2.506,0-4.926-0.367-7.218-1.039L198.451,220.506z M338.346,222.888
		c-0.51-6.997-1.313-11.787-1.416-12.379c-0.323-1.917-8.375-47.064-48.755-56.455c-12.135-2.819-23.634,0.38-34.176,9.514
		c-11.887,10.3-29.143,10.298-41.029,0c-10.542-9.135-22.041-12.336-34.175-9.514c-40.38,9.391-48.433,54.538-48.751,56.432
		c-0.104,0.6-0.909,5.398-1.419,12.403l-4.257-2.21c1.463-31.595,12.35-57.777,31.719-76.043
		c19.442-18.335,46.206-28.026,77.398-28.026s57.956,9.691,77.398,28.026c19.37,18.266,30.256,44.448,31.719,76.043L338.346,222.888
		z M128.207,235.066c0.086,15.095,2.564,33.757,12.567,45.761c4.026,4.831,5.675,10.614,4.104,14.391
		c-0.733,1.761-2.164,2.989-4.236,3.696c-9.758-19.269-15.659-41.778-16.369-65.89L128.207,235.066z M149.225,273.783
		c-6.848-8.217-9.284-21.086-9.867-32.93l7.462,3.873c1.735,18.638,17.458,33.279,36.542,33.279
		c17.791,0,32.661-12.724,36.001-29.548h28.246c3.34,16.824,18.211,29.548,36.001,29.548c19.084,0,34.807-14.641,36.542-33.279
		l7.41-3.846c-0.66,12.197-3.221,24.99-9.815,32.903c-6.591,7.909-8.393,18.267-4.59,26.386c1.724,3.681,4.473,6.518,7.875,8.286
		c-19.95,32.77-51.768,54.017-87.546,54.017c-35.731,0-67.511-21.192-87.466-53.888c4.15-1.888,7.299-5.023,9.013-9.14
		C158.234,291.756,156.008,281.924,149.225,273.783z M198.433,398.412c-1.079-1.946-3.221-3.054-5.436-2.798l-21.864,2.503
		l2.28-44.107c7.733,5.409,16.007,9.806,24.698,13.044l29.875,67.058v17.862l-47.875-25.111l17.813-22.358
		C199.311,402.765,199.512,400.36,198.433,398.412z M293.558,354.01l2.28,44.108l-21.864-2.503
		c-2.215-0.258-4.357,0.852-5.436,2.798c-1.079,1.947-0.878,4.353,0.509,6.093l17.813,22.358l-47.875,25.111v-17.88l29.875-67.041
		C277.552,363.816,285.826,359.419,293.558,354.01z M233.482,419.42l-21.509-48.28c6.982,1.53,14.171,2.332,21.512,2.332
		c7.341,0,14.529-0.802,21.511-2.332L233.482,419.42z M297.864,433.513c1.453-0.763,2.489-2.133,2.827-3.738
		c0.338-1.604-0.058-3.277-1.08-4.56l-13.671-17.159l15.101,1.729c1.605,0.188,3.213-0.348,4.392-1.455s1.81-2.678,1.727-4.293
		l-2.573-49.78c25.192,13.359,46.421,33.784,60.735,58.498c-31.597,23.34-68.583,37.743-107.816,41.928L297.864,433.513z
		 M161.539,408.329c1.179,1.107,2.788,1.644,4.392,1.455l15.101-1.729l-13.671,17.159c-1.022,1.282-1.418,2.955-1.08,4.56
		c0.338,1.605,1.375,2.976,2.827,3.738l40.359,21.169c-39.24-4.186-76.232-18.593-107.833-41.94
		c14.316-24.775,35.555-45.229,60.757-58.573l-2.578,49.867C159.729,405.652,160.36,407.222,161.539,408.329z M390.807,390.807
		c-5.355,5.355-10.938,10.399-16.721,15.132c-15.871-26.819-39.376-48.816-67.11-62.834c17.357-16.235,30.951-38.07,38.916-63.244
		c0.574,0.034,1.148,0.058,1.72,0.058c6.306,0,12.409-2.05,17.511-5.938c6.159-4.693,10.122-11.504,11.159-19.178
		s-0.978-15.292-5.671-21.451c-4.228-5.549-10.178-9.307-16.926-10.756c-1.129-35.578-13.253-65.217-35.254-85.963
		c-21.521-20.296-50.895-31.023-84.945-31.023s-63.424,10.728-84.945,31.023c-22.034,20.778-34.162,50.476-35.259,86.126
		c-6.445,1.559-12.117,5.247-16.191,10.594c-4.693,6.159-6.708,13.777-5.671,21.451s5,14.484,11.159,19.178
		c5.102,3.888,11.204,5.938,17.511,5.938c0.332,0,0.665-0.022,0.998-0.034c7.957,25.137,21.527,46.943,38.851,63.167
		c-27.749,14.03-51.221,36.031-67.07,62.873c-5.777-4.729-11.354-9.769-16.704-15.118C34.143,348.784,11,292.913,11,233.486
		s23.143-115.299,65.165-157.32C118.187,34.143,174.058,11,233.485,11c59.428,0,115.299,23.143,157.321,65.165
		c42.022,42.021,65.165,97.893,65.165,157.32S432.829,348.784,390.807,390.807z"/>
</g>
<g>
</g>
<g>
</g>
<g>
</g>
<g>
</g>
<g>
</g>
<g>
</g>
<g>
</g>
<g>
</g>
<g>
</g>
<g>
</g>
<g>
</g>
<g>
</g>
<g>
</g>
<g>
</g>
<g>
</g>
</svg>
